<?xml version="1.0" standalone="no"?>
<!DOCTYPE svg PUBLIC "-//W3C//DTD SVG 20010904//EN"
 "http://www.w3.org/TR/2001/REC-SVG-20010904/DTD/svg10.dtd">
<svg version="1.0" xmlns="http://www.w3.org/2000/svg"
 width="793.000000pt" height="793.000000pt" viewBox="0 0 793.000000 793.000000"
 preserveAspectRatio="xMidYMid meet">
<metadata>
Created by potrace 1.14, written by Peter Selinger 2001-2017
</metadata>
<g transform="translate(0.000000,793.000000) scale(0.100000,-0.100000)"
fill="#000000" stroke="none">
<path d="M3865 7923 c-11 -2 -38 -11 -60 -20 -22 -9 -65 -17 -95 -18 -96 -4
-160 -24 -206 -67 -22 -19 -22 -19 -55 9 -58 49 -85 58 -170 57 -73 -2 -85 -5
-186 -55 -138 -67 -169 -69 -304 -10 -53 22 -103 41 -112 41 -9 0 -18 4 -21 8
-10 17 -174 11 -248 -9 -59 -15 -97 -18 -198 -14 -69 3 -152 8 -185 12 -82 9
-327 9 -400 0 -111 -13 -152 -31 -233 -101 -30 -25 -57 -46 -60 -47 -4 0 -28
-2 -54 -4 -79 -6 -142 -54 -175 -134 -23 -54 -24 -70 -7 -135 9 -34 18 -74 21
-91 2 -16 6 -35 8 -42 2 -7 0 -15 -6 -18 -5 -4 -7 -10 -4 -15 3 -4 -4 -37 -16
-72 -11 -34 -23 -83 -27 -108 -14 -93 -5 -382 13 -410 2 -4 7 -22 10 -41 13
-75 35 -158 56 -210 58 -147 66 -226 34 -350 -21 -79 -15 -128 25 -219 47
-107 47 -123 -5 -224 -46 -90 -50 -119 -25 -181 14 -35 29 -113 23 -118 -2 -3
-6 -13 -8 -23 -3 -11 -16 -57 -30 -104 -58 -188 -52 -317 25 -564 44 -142 45
-162 20 -231 -48 -135 -45 -167 22 -303 34 -69 39 -86 30 -106 -8 -18 -16 -22
-40 -18 -23 3 -33 -2 -46 -19 -20 -29 -21 -49 -1 -49 23 0 18 -34 -7 -45 -13
-6 -24 -20 -26 -33 -4 -24 25 -65 39 -57 16 11 20 -17 5 -34 -33 -36 -6 -71
56 -71 l40 0 -6 -42 c-3 -23 -12 -51 -19 -62 -8 -12 -23 -46 -35 -77 -27 -73
-23 -145 13 -223 34 -71 34 -113 1 -226 -13 -47 -27 -101 -30 -120 -3 -19 -8
-46 -11 -60 -12 -55 -11 -189 2 -253 7 -37 28 -105 44 -150 41 -108 44 -139
24 -208 -23 -74 -15 -110 37 -188 50 -75 51 -106 9 -213 -16 -42 -30 -87 -29
-100 0 -13 12 -66 25 -118 30 -115 27 -179 -15 -285 -41 -105 -62 -233 -67
-408 -3 -138 5 -192 51 -329 20 -58 25 -89 21 -127 -3 -28 -8 -54 -10 -59 -3
-4 -8 -29 -11 -54 -4 -38 -1 -55 20 -92 44 -79 100 -115 186 -120 37 -2 59
-12 102 -44 65 -50 134 -79 208 -87 82 -10 314 -11 403 -1 162 17 260 21 305
11 169 -36 264 -31 375 20 127 58 183 69 238 46 16 -6 30 -11 31 -11 2 0 30
-12 62 -27 69 -32 73 -33 139 -38 71 -5 134 11 177 46 l38 30 37 -24 c52 -33
97 -45 168 -45 34 -1 74 -6 90 -13 49 -20 56 -21 165 -25 78 -2 119 1 155 13
28 9 90 19 138 24 49 4 94 12 100 17 7 6 29 20 51 31 37 21 39 21 58 4 42 -37
90 -52 169 -50 67 2 85 7 175 50 119 58 167 63 259 24 127 -53 237 -69 333
-47 95 22 122 25 242 23 491 -9 535 -8 630 24 25 8 70 34 100 57 74 56 75 57
123 62 53 6 78 14 93 28 6 6 21 18 33 26 51 35 83 125 67 190 -24 103 -24 143
4 217 27 72 47 173 49 243 1 30 2 60 3 65 1 6 -2 44 -6 85 -6 65 -11 103 -31
215 -2 11 -19 67 -39 124 -42 122 -45 174 -15 281 25 90 22 128 -19 238 -35
97 -33 113 23 203 38 62 47 121 25 174 -22 54 -19 89 16 205 20 63 39 124 43
135 4 11 7 72 5 135 -3 138 -4 146 -49 313 -3 9 -8 27 -12 40 -15 51 -6 151
20 210 33 79 29 140 -19 243 -35 75 -41 128 -16 130 6 1 23 2 36 3 13 0 31 12
40 25 14 22 14 27 1 40 -21 20 -19 28 10 50 33 25 32 40 -6 67 -31 22 -31 23
-13 39 10 8 20 21 21 27 4 18 -36 46 -68 48 -57 3 -56 23 3 144 45 90 49 160
15 245 -37 92 -38 104 -13 211 2 6 14 48 28 95 42 135 62 306 44 367 -2 10 -7
34 -10 53 -3 19 -19 75 -36 124 -33 98 -37 156 -16 207 30 71 24 107 -30 197
-49 83 -50 116 -2 221 20 43 37 126 32 152 -1 8 -10 41 -19 74 -29 108 -23
191 22 299 14 33 27 68 29 78 2 10 6 27 9 39 2 11 6 28 9 37 5 17 10 41 21
112 3 19 9 60 14 90 20 123 5 339 -29 425 -32 80 -32 137 -3 250 11 44 15 75
10 87 -2 7 -6 18 -8 23 -14 45 -62 103 -109 132 -39 24 -34 23 -95 23 -37 0
-52 6 -82 34 -74 65 -143 99 -228 111 -59 9 -345 14 -345 6 0 -3 -12 -6 -27
-6 -16 -1 -64 -5 -108 -9 -132 -14 -197 -13 -291 7 -49 10 -109 20 -134 22
-59 5 -169 -20 -250 -57 -78 -35 -91 -39 -150 -43 -38 -3 -63 6 -153 50 -104
51 -109 52 -189 51 -58 -1 -94 -7 -120 -20 -21 -10 -38 -21 -38 -25 0 -3 -9
-12 -20 -18 -17 -11 -30 -7 -89 23 -59 31 -80 37 -142 39 -46 1 -89 9 -114 20
-29 13 -69 18 -145 20 -58 1 -114 0 -125 -2z m113 -266 c15 3 35 15 45 26 16
19 19 19 33 5 14 -14 13 -19 -14 -50 -17 -18 -42 -40 -55 -47 -23 -12 -28 -11
-54 13 -15 14 -31 26 -35 26 -17 0 -29 40 -17 61 11 22 12 22 41 -10 24 -25
34 -30 56 -24z m1472 -83 c56 -6 138 -6 200 -1 47 5 69 -8 86 -48 23 -55 24
-102 4 -161 -29 -83 -25 -88 126 -197 79 -57 117 -133 92 -181 -28 -52 -77
-59 -159 -22 -30 14 -65 27 -79 30 -14 2 -43 8 -65 13 -45 10 -88 10 -220 -2
-135 -13 -224 -10 -241 7 -38 38 -10 118 65 186 50 46 89 64 216 103 129 38
161 58 186 113 15 35 16 44 5 61 -8 12 -23 19 -37 18 -13 -1 -69 -5 -124 -8
-175 -11 -252 -39 -311 -111 -20 -24 -58 -59 -84 -78 -37 -26 -55 -50 -80
-103 -32 -67 -60 -106 -138 -192 -23 -24 -46 -57 -53 -72 -6 -16 -15 -29 -20
-29 -5 0 -9 -8 -10 -17 0 -10 -19 -61 -42 -113 -34 -75 -49 -98 -72 -109 -27
-13 -33 -12 -86 16 -45 23 -69 29 -111 28 -105 -4 -177 -28 -263 -87 -22 -15
-53 -30 -70 -33 -16 -2 -45 -9 -63 -14 -18 -5 -43 -7 -55 -4 -36 10 -120 11
-145 2 -27 -10 -167 25 -190 47 -41 41 -217 95 -284 88 -18 -2 -57 -17 -88
-33 -57 -29 -80 -32 -106 -10 -9 7 -44 72 -79 143 -54 112 -74 142 -139 211
-44 47 -89 106 -107 141 -29 59 -90 134 -107 134 -5 0 -38 29 -74 64 -89 87
-137 103 -347 111 -138 5 -158 -2 -140 -54 23 -66 84 -104 199 -127 60 -12
172 -56 208 -81 49 -35 112 -127 112 -163 0 -18 -8 -33 -25 -44 -26 -17 -75
-19 -337 -12 -102 3 -182 -15 -295 -64 -46 -21 -55 -22 -83 -10 -40 17 -61 61
-49 103 17 59 56 105 151 174 30 23 60 55 67 71 11 26 10 35 -9 72 -37 72 -21
193 29 220 10 5 74 9 144 9 70 0 130 2 134 4 5 3 32 8 62 12 30 4 61 8 70 10
27 5 121 -24 155 -47 37 -26 50 -42 70 -84 19 -39 29 -46 89 -68 68 -25 73
-41 51 -148 -11 -55 50 -154 123 -199 27 -17 123 -50 184 -64 9 -2 38 -13 65
-25 49 -23 74 -45 99 -91 16 -29 56 -57 184 -128 50 -28 108 -68 130 -90 40
-40 38 -39 121 -29 8 1 33 -4 54 -10 22 -6 46 -8 55 -3 9 5 44 9 78 9 66 0 97
12 113 42 5 10 63 51 128 89 138 83 141 86 171 131 43 63 72 82 182 121 60 21
127 48 148 59 38 19 101 84 101 104 0 5 7 17 15 26 19 20 21 52 7 108 -5 24
-9 50 -8 59 2 14 86 70 86 57 0 -16 44 23 55 50 27 63 107 122 185 136 19 3
58 2 85 -2 28 -4 75 -10 105 -14z m-2076 -3 c16 -14 23 -51 8 -51 -9 0 -130
-101 -184 -155 -42 -40 -46 -63 -23 -119 18 -42 57 -69 132 -91 29 -9 70 -25
90 -38 26 -15 56 -22 93 -23 30 -1 89 -2 130 -3 41 -1 84 0 95 3 76 16 136 17
194 2 57 -15 90 -14 131 1 42 16 58 17 145 8 38 -4 90 -8 115 -7 192 3 195 3
230 26 31 21 65 35 95 42 19 4 80 34 95 46 28 24 50 67 50 99 0 36 -49 104
-83 115 -12 4 -40 23 -63 43 -22 20 -50 44 -62 53 -12 10 -22 22 -22 27 0 19
46 41 86 41 38 0 153 -35 196 -60 10 -6 25 -10 33 -10 22 0 19 -7 -20 -42 -31
-27 -35 -35 -29 -62 3 -17 13 -44 21 -60 22 -44 23 -115 0 -153 -23 -40 -62
-64 -157 -99 -41 -15 -98 -42 -127 -60 -62 -40 -90 -45 -154 -28 -45 12 -69
12 -125 -1 -12 -3 -27 2 -34 10 -16 20 -129 21 -155 1 -12 -9 -28 -11 -44 -6
-14 4 -55 6 -91 4 -35 -1 -70 2 -77 7 -14 12 -132 7 -154 -7 -8 -4 -43 -9 -79
-9 -36 -1 -88 -5 -116 -9 -47 -8 -55 -6 -125 32 -41 22 -101 48 -134 57 -150
42 -194 115 -150 253 l23 72 -44 39 c-47 42 -53 51 -28 51 8 0 50 14 92 32 42
18 83 33 90 34 8 2 16 4 18 7 10 9 103 0 118 -12z m344 -3 c13 -18 5 -60 -16
-79 -9 -9 -38 -24 -64 -33 -31 -11 -54 -28 -67 -49 -18 -28 -18 -34 -5 -59 16
-30 58 -55 89 -52 43 4 161 17 174 19 8 1 35 -2 60 -7 72 -14 105 -16 123 -7
18 10 135 12 183 4 128 -21 196 11 180 86 -7 29 -42 61 -73 65 -38 6 -71 28
-83 56 -21 51 15 85 39 36 14 -29 53 -61 89 -72 27 -9 56 -48 72 -97 11 -35
13 -37 59 -35 41 1 47 -2 47 -19 0 -15 -9 -21 -36 -25 -20 -4 -51 -16 -71 -28
-32 -20 -44 -21 -139 -16 -97 6 -171 7 -301 6 -29 0 -84 0 -123 1 -38 1 -97
-2 -130 -7 -103 -15 -159 -11 -212 16 -26 14 -56 24 -65 23 -9 -2 -23 3 -29
11 -10 12 -9 18 3 31 13 12 22 13 46 5 33 -11 52 -1 52 29 0 31 40 87 72 100
43 18 88 58 88 78 0 31 20 40 38 19z m181 -29 c10 -11 22 -36 25 -55 8 -42 33
-57 66 -41 16 8 25 22 27 41 1 16 12 39 24 53 20 20 25 21 37 9 12 -12 10 -20
-12 -58 -14 -25 -26 -51 -26 -59 0 -20 -48 -69 -68 -69 -21 0 -72 43 -72 61 0
8 -11 34 -25 58 -28 48 -32 81 -10 81 8 0 23 -9 34 -21z m99 -617 c4 -28 -24
-41 -44 -20 -20 20 -7 50 20 46 13 -2 22 -12 24 -26z m-140 -52 c51 -46 74
-54 143 -48 43 4 57 12 94 48 37 37 46 41 60 30 21 -17 19 -27 -10 -46 -37
-24 -161 -64 -186 -59 -54 11 -148 47 -168 66 -17 16 -20 24 -10 35 18 21 30
17 77 -26z m-217 8 c9 -7 30 -32 48 -55 24 -32 29 -43 17 -43 -9 0 -16 5 -16
10 0 6 -4 9 -9 8 -14 -5 -88 59 -88 76 0 19 27 21 48 4z m709 2 c0 -6 -12 -22
-26 -35 -29 -27 -94 -67 -94 -59 0 6 35 53 65 87 16 19 55 23 55 7z m1256 -75
c32 -9 73 -20 89 -24 90 -24 247 -109 267 -145 4 -7 1 -25 -7 -39 -13 -26 -20
-82 -17 -138 2 -26 11 -39 76 -110 69 -73 102 -133 125 -219 24 -93 102 -258
146 -310 30 -36 85 -121 98 -152 18 -44 14 -123 -11 -218 -13 -50 -25 -76 -36
-78 -31 -6 -39 48 -16 109 20 55 17 105 -11 158 -25 48 -66 68 -101 50 -12 -6
-25 -15 -28 -19 -11 -16 -48 -20 -53 -6 -4 9 11 28 38 51 73 59 75 118 11 220
-38 59 -66 114 -66 128 0 6 -10 31 -21 55 -16 31 -32 48 -56 59 -47 19 -72 2
-98 -66 -25 -66 -58 -99 -80 -81 -26 22 -17 47 35 91 28 24 54 46 59 49 21 12
43 91 36 127 -10 56 -19 68 -98 127 -39 30 -105 86 -144 124 -44 43 -86 75
-107 80 -58 16 -125 0 -153 -37 -24 -32 -36 -146 -20 -196 17 -55 -2 -85 -53
-85 -52 0 -59 17 -27 72 39 67 50 171 26 245 -31 97 -131 69 -271 -75 -71 -72
-100 -89 -212 -119 -85 -22 -130 -64 -164 -150 -15 -38 -36 -69 -58 -87 -52
-41 -157 -84 -247 -102 -19 -3 -80 -39 -110 -64 -29 -24 -156 -205 -183 -260
-21 -43 -32 -54 -82 -78 -31 -15 -63 -33 -70 -39 -19 -19 -26 -17 -107 26 -86
45 -93 52 -118 106 -19 40 -148 205 -186 237 -41 34 -106 61 -181 74 -38 7
-61 15 -110 37 -75 34 -109 65 -135 122 -28 64 -77 120 -113 131 -15 4 -30 8
-34 9 -5 2 -9 3 -10 4 -2 2 -14 4 -28 7 -89 15 -133 40 -216 122 -54 53 -154
112 -188 112 -37 0 -49 -7 -66 -40 -30 -57 -13 -218 29 -265 31 -34 33 -53 7
-70 -18 -12 -29 -13 -54 -4 -33 11 -37 22 -32 84 6 62 -1 117 -21 167 -20 49
-107 74 -171 49 -15 -6 -79 -62 -142 -126 -64 -63 -120 -115 -125 -115 -19 0
-51 -44 -62 -84 -8 -29 -8 -50 0 -77 11 -38 69 -101 111 -122 14 -7 31 -24 40
-39 14 -25 13 -28 -5 -42 -24 -17 -48 -4 -71 39 -48 94 -57 105 -84 105 -42 0
-76 -40 -99 -115 -21 -68 -58 -144 -76 -157 -5 -4 -6 -8 -1 -8 5 0 3 -6 -3
-14 -23 -27 -31 -78 -19 -118 8 -28 23 -45 55 -66 43 -27 58 -62 27 -62 -9 0
-29 9 -45 21 -39 28 -66 21 -103 -24 -27 -34 -31 -46 -30 -100 0 -38 7 -74 17
-92 21 -37 22 -79 2 -95 -12 -10 -18 -10 -30 0 -9 7 -13 15 -11 18 3 2 -4 27
-15 56 -38 94 -56 161 -54 201 1 38 41 136 58 143 4 2 7 10 7 17 0 7 4 15 8
17 4 2 21 26 38 53 57 94 104 204 130 302 26 101 57 158 129 237 20 21 43 49
52 62 20 32 20 118 -2 167 -9 21 -13 46 -10 55 6 17 89 75 150 105 46 23 174
68 235 83 79 19 192 17 288 -6 147 -35 228 -89 336 -224 58 -72 225 -240 310
-311 44 -37 115 -69 149 -66 16 1 45 -10 70 -27 23 -15 65 -38 92 -50 39 -18
59 -36 87 -80 21 -31 59 -79 85 -106 26 -27 63 -81 83 -120 22 -45 42 -72 54
-75 10 -1 28 -11 39 -21 22 -21 34 -20 99 9 41 19 48 27 63 70 16 50 42 89 97
149 19 21 51 63 72 94 30 46 50 64 99 89 34 17 75 40 90 51 16 11 45 21 66 23
20 1 47 7 59 14 22 12 143 109 153 123 3 4 43 47 90 95 47 49 111 123 143 166
68 90 118 134 201 174 141 68 297 85 431 48z m-1606 -96 c41 2 89 4 105 4 24
2 30 -2 30 -18 0 -22 -3 -22 -138 -12 -32 2 -83 -1 -113 -6 -60 -10 -82 -1
-70 28 5 14 14 16 59 9 28 -4 86 -6 127 -5z m590 -134 c20 -61 -8 -113 -98
-185 -47 -37 -51 -42 -42 -66 28 -72 -7 -128 -96 -158 -44 -14 -58 -26 -92
-74 -43 -60 -108 -129 -120 -125 -4 2 -21 0 -39 -3 -27 -5 -36 -1 -63 29 -39
45 -81 45 -119 0 -37 -42 -53 -45 -108 -18 -33 17 -61 43 -92 85 -47 65 -85
100 -108 100 -28 0 -83 33 -104 61 -17 25 -19 35 -11 79 l9 50 -63 47 c-99 76
-121 157 -58 220 42 42 192 10 250 -53 28 -30 31 -41 33 -103 1 -38 4 -81 7
-95 2 -14 6 -37 8 -49 2 -13 16 -47 30 -76 15 -28 29 -71 32 -96 9 -58 34 -98
77 -118 49 -24 65 -21 97 13 36 38 87 36 123 -5 20 -24 28 -27 59 -21 59 11
85 42 106 126 10 41 26 89 34 105 21 40 36 123 41 218 4 69 8 82 32 107 25 27
111 64 165 72 42 7 97 -27 110 -67z m-793 -59 c11 -4 28 -17 36 -30 14 -21 19
-37 31 -119 8 -48 35 -131 48 -150 8 -10 31 -22 52 -27 35 -8 42 -6 67 19 26
26 42 68 53 136 3 17 7 47 10 68 10 64 42 104 89 113 35 6 41 -8 39 -90 -1
-54 -8 -82 -29 -125 -15 -31 -26 -59 -25 -63 1 -5 -1 -8 -5 -8 -5 0 -8 -27 -8
-61 0 -52 -3 -64 -24 -80 -24 -19 -25 -19 -34 -2 -26 48 -37 53 -75 38 -26
-12 -43 -13 -71 -5 -54 15 -64 13 -83 -20 -9 -17 -21 -30 -26 -30 -19 0 -42
52 -48 107 -4 32 -7 63 -8 68 -1 6 -11 26 -23 45 -11 19 -24 49 -28 67 -8 38
-9 139 -1 151 6 10 30 9 63 -2z m225 -23 c16 -19 16 -42 4 -138 -10 -75 -20
-95 -50 -95 -29 0 -44 32 -52 110 -10 86 -8 122 7 131 24 15 75 10 91 -8z
m1896 -1745 c7 -7 12 -20 12 -30 0 -10 15 -35 33 -55 18 -21 44 -55 56 -76 29
-48 66 -67 133 -68 64 -2 105 6 154 30 34 17 84 17 84 1 0 -4 -18 -17 -41 -29
-22 -12 -72 -44 -111 -71 -39 -28 -75 -50 -81 -50 -5 0 -26 13 -46 29 -66 52
-77 54 -242 58 l-156 3 -33 -34 c-34 -34 -61 -114 -75 -216 -3 -25 -14 -81
-24 -125 -37 -161 -34 -344 7 -490 6 -22 14 -62 17 -90 10 -86 45 -202 68
-223 29 -27 65 -39 102 -36 17 2 78 4 136 5 114 2 163 17 207 64 13 14 28 25
35 25 7 0 56 -29 110 -65 54 -36 105 -65 114 -65 23 0 9 -25 -16 -28 -13 -2
-46 6 -74 18 -68 30 -161 30 -217 0 -27 -14 -59 -50 -60 -65 0 -6 -18 -29 -39
-51 -21 -23 -42 -56 -46 -73 -5 -22 -12 -31 -23 -29 -27 5 -24 25 9 63 27 30
32 45 33 86 0 38 -5 55 -22 72 -20 19 -34 22 -120 24 -53 1 -122 8 -152 16
-30 8 -62 12 -71 10 -9 -3 -38 -25 -63 -50 -38 -37 -49 -43 -61 -33 -17 14
-14 51 6 61 8 4 26 12 40 19 54 25 79 55 85 104 13 94 -33 198 -104 235 l-23
12 26 20 c20 16 24 26 19 47 -8 34 -8 50 0 86 4 15 2 43 -4 61 -8 25 -8 45 0
76 9 31 9 48 -1 71 -9 22 -9 35 -1 53 14 31 8 49 -23 65 l-25 13 28 17 c37 24
82 73 87 96 2 10 8 33 12 49 8 26 9 65 4 112 -2 24 -54 73 -95 92 -52 22 -60
34 -46 61 15 29 25 26 78 -26 44 -44 48 -46 93 -41 26 3 57 10 68 16 12 7 21
8 21 4 0 -4 5 -2 11 4 6 6 26 7 47 4 131 -22 200 23 182 119 -4 24 -17 51 -28
60 -24 20 -43 55 -35 64 10 10 28 7 41 -6z m-3839 -27 c12 -8 13 -14 3 -35 -6
-14 -16 -26 -21 -26 -16 0 -43 -83 -37 -116 11 -58 35 -69 150 -70 55 0 110
-3 121 -7 11 -3 39 -9 62 -12 41 -6 45 -4 94 44 43 42 55 49 70 40 12 -6 17
-17 15 -32 -3 -12 -5 -25 -5 -28 -1 -3 -25 -15 -54 -27 -60 -25 -87 -61 -91
-120 -6 -92 33 -174 102 -215 l35 -21 -28 -24 c-26 -22 -27 -26 -17 -58 7 -24
7 -43 -1 -63 -8 -22 -8 -39 3 -70 10 -32 10 -46 0 -70 -10 -25 -10 -37 0 -61
9 -22 9 -37 1 -60 -9 -26 -7 -34 9 -50 11 -11 25 -20 30 -20 17 0 11 -18 -9
-25 -30 -9 -89 -75 -102 -113 -16 -47 -18 -121 -5 -152 15 -34 43 -56 98 -76
48 -18 64 -45 46 -78 -12 -21 -39 -7 -90 45 -31 32 -42 37 -70 33 -52 -7 -62
-9 -74 -16 -6 -4 -46 -6 -90 -6 -112 2 -151 -7 -167 -40 -7 -15 -12 -33 -11
-39 1 -7 2 -24 3 -37 0 -13 14 -38 30 -55 34 -36 42 -54 32 -70 -13 -20 -40
-1 -50 35 -5 18 -23 48 -41 66 -17 18 -40 49 -50 69 -18 35 -71 67 -115 68
-75 4 -170 -12 -181 -30 -7 -12 -74 -11 -74 1 0 6 3 10 8 10 4 0 52 29 107 65
55 36 106 65 114 65 7 0 36 -17 64 -37 51 -37 54 -38 162 -43 197 -10 220 -8
249 19 31 29 60 121 72 221 7 65 13 101 24 135 23 74 32 249 15 323 -4 19 -8
43 -10 55 -1 12 -8 42 -14 67 -14 56 -18 74 -26 125 -6 44 -22 111 -32 135 -4
8 -7 17 -8 20 -28 82 -51 91 -221 84 -162 -6 -190 -13 -241 -59 -21 -19 -42
-35 -46 -35 -13 0 -67 30 -127 70 -30 20 -70 42 -87 49 -37 15 -41 25 -16 39
11 7 37 2 85 -14 122 -43 238 -22 271 49 9 19 30 49 46 66 17 18 33 42 36 54
9 31 27 67 34 67 3 0 12 -4 20 -9z m4413 -310 c16 -2 61 -95 63 -129 2 -23
-10 -65 -31 -114 -32 -75 -45 -140 -32 -154 4 -3 2 -18 -4 -33 -16 -38 -16
-151 -1 -182 6 -15 10 -29 6 -32 -15 -15 -1 -93 27 -158 18 -39 32 -86 32
-104 0 -43 -46 -132 -73 -140 -62 -20 -154 44 -234 162 -22 32 -42 60 -45 63
-7 6 -34 70 -36 88 -1 6 2 12 7 12 5 0 9 -3 9 -7 0 -5 15 -25 33 -45 17 -21
48 -60 67 -87 29 -42 90 -94 90 -77 0 3 12 1 26 -4 14 -6 32 -6 40 -2 12 7 10
13 -11 38 -31 36 -32 51 -2 49 61 -5 62 21 2 63 -25 18 -50 42 -54 55 -8 19
-4 24 23 36 44 19 49 33 19 56 l-25 21 30 30 c25 26 30 37 28 74 -2 33 -9 49
-31 68 l-29 25 22 17 c37 31 27 57 -25 64 -43 7 -22 43 66 113 30 24 20 44
-20 39 -43 -5 -44 7 -4 47 34 34 34 35 11 39 -46 9 -107 -24 -153 -82 -73 -93
-115 -141 -119 -138 -6 7 19 78 28 78 4 0 8 4 8 10 0 17 87 134 132 176 64 62
94 74 160 65z m-602 -21 c46 0 80 -10 80 -22 0 -6 -9 -8 -20 -5 -29 8 -87 -11
-94 -30 -4 -9 1 -24 10 -35 22 -24 14 -31 -22 -18 -35 14 -72 -3 -80 -37 -7
-27 8 -48 49 -69 40 -21 28 -27 -19 -10 -47 16 -61 9 -87 -46 -27 -58 -18
-108 19 -108 7 0 25 -5 41 -11 l28 -12 -25 -7 c-14 -4 -30 -3 -36 1 -6 5 -20
-1 -33 -15 -19 -20 -21 -32 -18 -91 4 -75 20 -97 63 -89 46 8 48 -9 3 -26 -60
-24 -68 -50 -38 -115 27 -56 42 -62 95 -40 53 22 53 11 0 -20 -50 -29 -51 -32
-35 -68 18 -39 51 -49 88 -26 37 22 39 18 9 -22 l-23 -30 25 -20 c19 -15 35
-18 69 -15 73 9 32 -16 -46 -27 -154 -22 -155 -22 -191 158 -6 28 -17 74 -26
103 -41 144 -37 418 9 528 8 21 17 56 19 78 6 57 12 79 31 116 19 37 49 50 90
39 16 -5 46 -9 65 -9z m-4305 -34 c39 -27 93 -80 135 -136 19 -25 37 -47 40
-50 16 -15 50 -91 50 -111 0 -27 2 -29 -111 110 -51 62 -95 91 -142 91 -36 0
-37 -8 -6 -41 29 -31 30 -55 2 -44 -18 6 -53 -3 -53 -13 0 -4 24 -25 54 -47
30 -22 57 -47 59 -56 6 -23 -7 -41 -24 -34 -9 3 -23 -3 -33 -14 -16 -18 -16
-20 8 -39 15 -11 26 -22 26 -25 0 -3 -13 -18 -29 -34 -25 -26 -28 -35 -25 -78
3 -42 9 -55 36 -77 34 -29 34 -30 -10 -56 -24 -15 -2 -42 34 -42 26 0 34 -4
34 -18 0 -21 -39 -64 -80 -88 -48 -29 -40 -49 18 -44 31 2 28 -23 -5 -49 -14
-12 -24 -23 -22 -25 8 -8 54 -9 74 -2 48 18 63 30 100 83 51 72 102 129 109
123 16 -16 -91 -194 -159 -263 -49 -50 -73 -65 -118 -72 -44 -7 -61 7 -96 77
-27 54 -25 85 10 163 33 72 41 115 28 151 -4 11 -3 28 3 37 10 19 11 60 3 147
-2 30 -6 80 -8 110 -2 36 -16 84 -40 138 -20 46 -37 94 -37 107 0 29 39 115
60 133 21 17 80 12 115 -12z m633 -10 c26 -23 56 -116 49 -152 -2 -14 -1 -27
4 -29 26 -17 63 -215 63 -335 0 -104 -17 -213 -40 -268 -8 -20 -16 -59 -18
-86 -4 -55 -25 -114 -47 -133 -18 -14 -47 -18 -79 -10 -14 4 -43 9 -64 12 -58
8 -86 16 -86 25 0 5 18 6 40 3 27 -4 47 0 65 11 29 19 31 31 10 52 -25 25 -17
34 14 16 29 -16 31 -16 58 4 43 32 39 72 -9 98 -49 25 -42 31 14 13 23 -9 46
-12 50 -9 20 21 44 82 44 111 -1 34 -6 39 -60 61 -34 13 -21 30 17 23 32 -6
55 39 51 100 -5 70 -17 85 -67 89 l-42 4 30 12 c74 30 83 50 50 121 -14 28
-30 54 -38 56 -7 3 -30 -2 -51 -10 -53 -22 -56 -12 -7 19 54 35 55 73 1 101
-24 12 -30 12 -46 0 -34 -26 -49 -11 -19 19 33 33 -12 65 -85 60 -42 -2 -44
-2 -20 11 14 7 49 15 79 18 29 3 56 8 59 12 12 11 57 1 80 -19z m3852 -129 c0
-7 -6 -23 -13 -37 -7 -14 -21 -49 -31 -79 -52 -161 -42 -356 27 -499 27 -55
23 -81 -10 -63 -23 11 -83 131 -113 224 -11 33 -24 65 -30 72 -18 21 -18 59 0
95 10 19 23 54 29 78 19 67 88 209 108 220 20 12 33 7 33 -11z m-4110 -58 c16
-23 48 -88 71 -147 22 -58 48 -120 56 -137 14 -30 14 -36 -2 -66 -9 -19 -19
-44 -21 -57 -3 -13 -21 -65 -41 -115 -40 -99 -84 -160 -103 -141 -8 8 -4 29
15 79 14 37 28 82 31 99 3 17 9 49 14 70 20 89 -9 273 -59 377 -41 83 -13 110
39 38z m3145 -111 c17 -7 64 -11 110 -10 44 1 104 3 134 4 46 1 56 -2 72 -23
21 -27 20 -69 -3 -113 -13 -25 -13 -32 4 -64 26 -52 23 -86 -9 -112 -26 -20
-35 -21 -133 -15 -99 7 -120 4 -210 -23 -40 -12 -140 -13 -194 -1 -34 7 -64
12 -68 11 -40 -11 -97 -11 -107 2 -15 18 20 42 81 55 38 9 49 7 93 -16 64 -33
142 -34 206 -4 24 12 59 24 78 27 43 7 60 11 93 19 17 4 49 0 84 -11 48 -15
57 -15 65 -3 5 8 9 17 9 21 0 10 -42 22 -72 20 -37 -3 -44 14 -13 34 32 21 32
52 0 64 -26 10 -34 30 -12 31 75 4 109 22 84 46 -9 9 -25 7 -70 -8 -38 -13
-63 -16 -75 -11 -9 5 -41 12 -71 16 -30 4 -74 16 -98 27 -40 18 -76 23 -144
20 -14 0 -43 -12 -63 -26 -44 -30 -79 -31 -140 -5 -33 14 -44 23 -40 34 8 20
39 29 61 18 19 -9 59 -8 108 3 101 23 170 21 240 -7z m-2035 -4 c30 -4 92 -8
137 -8 110 -1 122 -17 40 -56 -54 -26 -85 -25 -140 6 -62 34 -123 35 -212 1
-116 -43 -207 -55 -259 -33 -40 17 -56 14 -56 -9 0 -20 19 -29 56 -27 39 3 66
-23 35 -33 -12 -3 -26 -15 -31 -26 -9 -16 -6 -21 17 -31 38 -16 37 -16 23 -33
-7 -8 -17 -12 -22 -9 -5 3 -25 3 -44 0 -25 -5 -34 -12 -34 -26 0 -20 29 -28
44 -12 4 4 12 8 17 8 5 1 10 2 12 4 20 16 196 -12 255 -40 19 -9 59 -18 90
-19 46 -2 67 3 116 29 l61 32 54 -19 c53 -18 83 -44 68 -60 -8 -7 -68 -7 -112
1 -11 1 -35 -1 -55 -6 -87 -23 -195 -16 -290 19 -14 5 -41 8 -60 7 -78 -5
-131 -12 -136 -17 -10 -10 -69 13 -86 34 -23 27 -23 51 2 98 16 33 17 41 5 51
-14 12 -31 66 -26 88 1 7 11 24 22 36 19 22 27 23 92 20 40 -2 86 -6 102 -7
28 -3 77 6 190 37 28 7 55 12 60 10 6 -2 35 -6 65 -10z m3170 -59 c0 -24 6
-37 19 -45 28 -14 51 -39 51 -54 0 -17 -30 -51 -54 -59 -13 -5 -17 -14 -14
-31 8 -40 -7 -54 -32 -31 -33 30 -42 53 -46 113 -4 56 4 82 39 120 28 31 37
28 37 -13z m-4473 -24 c31 -26 43 -62 43 -127 0 -75 -28 -124 -69 -124 -5 0
-7 15 -5 33 3 27 -1 35 -31 55 -48 30 -44 68 10 98 15 8 19 20 17 48 -4 40 3
44 35 17z m3205 -30 c10 -12 23 -21 30 -22 7 0 48 -2 90 -2 57 -2 82 -6 94
-19 15 -15 15 -17 -7 -29 -13 -7 -58 -13 -99 -15 -93 -2 -82 1 -118 -34 -27
-25 -35 -28 -57 -20 -14 5 -38 21 -53 35 -31 29 -74 32 -146 11 -52 -16 -89
-9 -100 19 -6 16 8 54 22 56 34 6 60 5 75 -3 10 -5 43 -10 73 -10 48 -1 58 2
87 29 50 48 72 49 109 4z m-1853 -18 c44 -37 72 -41 162 -20 64 15 94 8 104
-24 6 -17 2 -27 -15 -41 -25 -21 -47 -22 -86 -8 -15 6 -49 12 -75 13 -40 1
-53 -3 -76 -25 -15 -15 -40 -31 -55 -37 -23 -9 -30 -6 -62 25 -34 33 -37 34
-121 34 -69 0 -87 3 -92 16 -9 25 16 34 100 34 75 0 79 1 111 33 18 19 41 34
50 34 9 0 34 -15 55 -34z m-1387 -1465 c2 -37 -3 -72 -12 -83 -31 -37 -19
-134 22 -181 35 -39 59 -42 106 -14 18 11 37 18 43 15 18 -12 8 -34 -26 -55
-20 -12 -42 -34 -49 -48 -17 -34 -11 -99 13 -132 24 -35 80 -150 86 -178 9
-48 45 -91 81 -98 38 -7 46 -1 80 65 36 70 67 89 94 56 13 -16 -8 -41 -83 -98
-95 -72 -90 -176 12 -245 26 -18 87 -71 134 -118 47 -46 101 -90 119 -98 41
-16 102 -12 134 9 37 24 47 60 48 165 l1 95 35 12 c31 10 37 9 53 -9 15 -18
16 -23 3 -37 -46 -53 -68 -170 -47 -249 10 -36 17 -44 44 -50 18 -3 39 -6 48
-6 28 2 104 53 170 115 64 61 119 93 174 103 110 19 160 59 211 167 34 71 86
101 253 145 64 17 108 34 135 56 46 35 152 162 187 223 35 63 48 73 135 116
l83 40 46 -25 c25 -14 50 -26 56 -26 23 0 68 -42 89 -82 28 -55 124 -184 168
-225 38 -36 101 -69 147 -77 58 -11 70 -14 122 -35 91 -36 120 -60 148 -126
14 -33 34 -69 43 -81 15 -18 56 -46 72 -49 132 -25 177 -46 250 -115 144 -136
241 -155 269 -53 20 69 -9 233 -41 233 -13 0 -9 50 5 51 6 0 19 2 27 3 8 2 26
-1 39 -5 22 -9 23 -13 15 -57 -11 -68 -9 -147 5 -180 17 -40 77 -67 132 -59
49 6 87 32 178 121 38 36 74 66 80 66 6 0 11 4 11 9 0 5 12 14 28 20 55 23 95
116 74 171 -14 35 -10 45 15 42 29 -4 70 24 89 59 8 16 14 30 13 31 -4 9 55
126 83 164 28 39 33 55 32 101 0 58 5 51 -81 123 -38 32 10 41 50 10 35 -28
68 -25 99 8 49 50 63 134 33 192 -14 28 -14 67 0 90 7 12 35 14 36 3 2 -19 11
-61 24 -112 30 -121 25 -145 -52 -258 -36 -54 -70 -99 -75 -101 -4 -2 -8 -7
-8 -12 0 -5 -16 -35 -35 -67 -34 -58 -90 -203 -77 -203 3 0 1 -5 -6 -12 -7 -7
-12 -20 -12 -29 0 -19 -64 -105 -116 -155 -69 -68 -82 -121 -50 -211 14 -39
13 -42 -7 -60 -70 -63 -268 -143 -387 -158 -3 0 -9 -3 -15 -6 -26 -14 -172 1
-265 27 -116 33 -182 81 -294 214 -88 105 -286 289 -343 319 -12 6 -42 13 -66
15 -25 1 -58 12 -73 23 -16 11 -55 32 -86 47 -44 21 -68 42 -107 94 -27 37
-68 86 -89 109 -22 23 -47 64 -56 91 -15 45 -21 51 -76 75 -61 28 -67 27 -137
-5 -49 -23 -56 -30 -74 -83 -15 -41 -24 -54 -99 -138 -25 -27 -49 -57 -54 -66
-18 -33 -62 -73 -96 -87 -19 -8 -55 -27 -80 -42 -25 -14 -54 -27 -65 -28 -11
0 -30 -2 -41 -2 -59 -5 -290 -211 -415 -372 -65 -82 -106 -116 -183 -154 -86
-41 -102 -46 -206 -62 -57 -9 -163 -4 -222 11 -75 19 -179 55 -192 67 -6 4
-16 8 -24 8 -14 0 -127 74 -137 90 -3 5 1 29 8 52 13 37 15 70 8 136 0 7 -13
25 -27 39 -83 83 -135 159 -155 228 -42 146 -66 195 -178 365 -91 138 -95 149
-76 260 4 25 13 56 20 70 7 14 16 43 19 65 4 21 12 43 19 47 22 14 37 8 39
-14z m2208 -663 c18 -19 37 -32 41 -29 4 2 10 0 13 -5 10 -15 65 5 93 34 31
30 68 42 87 26 7 -6 15 -9 18 -6 8 8 95 -72 118 -109 11 -19 37 -42 58 -51
109 -50 118 -56 128 -83 6 -15 7 -37 3 -47 -16 -42 -9 -62 29 -87 52 -35 99
-86 107 -115 8 -35 -11 -88 -38 -102 -32 -17 -77 -21 -107 -9 -14 5 -36 12
-50 14 -31 6 -87 44 -96 64 -4 8 -8 40 -10 70 -8 122 -17 167 -45 215 -9 17
-23 56 -30 88 -15 68 -42 101 -97 118 -39 11 -42 10 -71 -17 -25 -23 -41 -29
-83 -31 -44 -2 -55 2 -75 24 -19 20 -30 24 -54 19 -63 -12 -102 -59 -112 -136
-2 -19 -15 -55 -28 -80 -28 -55 -28 -55 -35 -160 -9 -135 -20 -151 -143 -190
-76 -24 -123 -14 -151 33 -34 55 -8 114 80 182 54 42 58 48 50 71 -28 72 -1
112 98 145 37 12 67 29 73 41 22 40 93 118 122 133 43 22 71 17 107 -20z
m1959 2 c18 -23 63 -131 49 -120 -74 57 -97 78 -101 93 -9 33 30 53 52 27z
m-2014 -106 c11 -36 29 -42 76 -26 41 15 56 15 125 0 26 -6 33 -3 47 19 10 14
24 26 32 26 21 0 41 -48 44 -105 1 -28 10 -61 20 -75 31 -44 39 -69 41 -134 3
-82 2 -86 -27 -86 -54 0 -79 37 -99 141 -9 46 -20 90 -26 97 -6 6 -7 12 -4 12
18 0 -19 42 -47 53 -36 15 -101 6 -128 -19 -17 -15 -46 -95 -54 -149 -2 -17
-6 -39 -9 -50 -2 -11 -5 -25 -5 -32 -2 -21 -51 -63 -75 -63 -35 0 -43 18 -40
88 1 48 9 78 31 120 17 32 30 74 31 96 2 65 21 106 48 106 7 0 15 -9 19 -19z
m171 -153 c13 -9 23 -50 30 -118 3 -25 7 -50 9 -57 7 -22 -32 -44 -83 -45 -51
-1 -84 14 -77 35 2 7 6 39 9 72 8 85 23 123 49 127 24 4 46 -1 63 -14z m-22
-283 c124 12 209 3 241 -24 51 -43 150 -80 228 -87 20 -2 42 -6 47 -9 6 -3 10
-2 10 4 0 6 6 8 14 5 7 -3 34 7 60 21 97 54 113 45 177 -93 28 -59 55 -117 61
-129 6 -12 42 -55 80 -95 44 -46 80 -96 98 -134 18 -40 41 -72 66 -90 21 -16
61 -51 88 -78 49 -48 135 -95 173 -95 10 0 34 -2 53 -5 57 -8 214 -8 233 0 28
11 14 71 -26 110 -26 25 -57 38 -157 65 -139 37 -198 70 -243 135 -37 53 -44
95 -18 118 16 14 36 17 108 16 48 -1 111 -4 138 -6 158 -15 204 -9 346 48 69
28 79 29 104 17 41 -20 49 -61 23 -113 -23 -46 -49 -70 -125 -121 -91 -62
-104 -91 -73 -170 15 -38 4 -111 -21 -147 -19 -26 -23 -27 -102 -25 -85 1
-196 -8 -257 -21 -105 -24 -213 25 -256 115 -13 27 -33 42 -64 48 -42 8 -84
40 -74 56 2 4 6 24 10 44 3 21 7 45 9 55 3 17 -31 74 -73 121 -27 31 -87 58
-202 94 -99 31 -134 52 -175 109 -22 30 -61 58 -140 103 -61 33 -128 78 -149
98 -36 33 -44 36 -100 37 -111 1 -170 -1 -244 -5 -68 -4 -76 -7 -110 -40 -20
-19 -66 -50 -102 -68 -107 -53 -168 -96 -200 -140 -40 -56 -77 -77 -185 -106
-49 -14 -103 -32 -120 -41 -42 -21 -98 -83 -120 -132 -17 -37 -17 -48 -6 -102
14 -70 3 -92 -53 -102 -39 -8 -70 -32 -80 -63 -11 -33 -70 -85 -120 -105 -44
-17 -145 -18 -206 -3 -14 4 -80 6 -147 6 -98 -1 -125 2 -138 15 -44 44 -56
120 -28 182 18 43 23 72 11 72 -4 0 -8 5 -8 11 0 14 -16 29 -75 69 -80 54
-113 89 -131 137 -16 42 -16 45 2 70 28 37 53 43 99 26 171 -64 197 -68 457
-60 l158 5 20 -25 c18 -23 18 -27 4 -61 -28 -68 -107 -137 -179 -157 -16 -4
-34 -9 -40 -11 -5 -2 -46 -13 -89 -24 -44 -12 -92 -28 -107 -35 -29 -15 -69
-72 -69 -98 0 -20 27 -47 43 -42 7 2 63 7 125 9 169 8 240 32 303 103 19 21
50 50 69 63 52 36 58 43 91 111 18 36 63 95 109 144 44 48 88 106 102 136 14
30 39 84 56 121 31 66 63 99 92 95 8 -2 37 -13 63 -26 92 -45 233 -22 361 58
21 14 55 26 74 27 19 1 38 6 44 12 6 6 25 6 51 0 22 -5 73 -6 111 -3z m-104
-97 c0 3 4 2 10 -4 6 -6 43 -7 102 -1 149 14 152 14 156 -5 3 -14 -10 -16
-115 -15 -65 0 -144 -1 -175 -3 -62 -5 -77 2 -59 24 8 10 21 12 46 6 19 -4 35
-5 35 -2z m-195 -115 c-22 -34 -73 -83 -86 -83 -6 0 -9 10 -7 22 2 14 22 35
53 55 27 18 51 33 54 33 2 0 -5 -12 -14 -27z m435 -28 c49 -18 66 -35 47 -47
-21 -13 -32 -9 -71 27 -25 23 -49 36 -70 37 -104 5 -143 -6 -190 -53 -45 -44
-48 -45 -66 -24 -10 13 -10 19 5 35 10 11 27 20 37 20 11 0 29 5 41 12 12 6
42 17 67 23 48 12 110 3 200 -30z m225 -23 c2 -7 -3 -16 -12 -19 -11 -4 -27 6
-50 33 -18 21 -33 42 -33 46 0 12 89 -45 95 -60z m-333 -46 c13 -22 2 -33 -40
-39 -36 -6 -65 14 -56 38 11 27 81 28 96 1z m533 -118 c22 -13 76 -37 120 -52
44 -16 94 -37 111 -47 58 -35 72 -113 34 -191 -11 -23 -20 -48 -20 -57 0 -20
40 -61 59 -61 13 -1 12 -3 -3 -15 -11 -8 -26 -15 -33 -15 -7 0 -38 -12 -69
-26 -74 -34 -154 -43 -177 -19 -24 23 -22 31 18 55 19 12 41 29 48 38 6 10 31
30 55 45 95 61 102 139 19 200 -17 13 -52 29 -77 36 -24 7 -68 26 -98 42 -43
23 -58 26 -78 18 -14 -5 -30 -7 -35 -3 -14 8 -101 7 -194 -2 -99 -10 -163 -8
-178 5 -15 12 -120 8 -175 -8 -24 -7 -61 -9 -85 -5 -72 11 -100 13 -177 12
-41 0 -96 1 -121 1 -32 1 -63 -7 -105 -29 -32 -16 -65 -30 -73 -30 -32 0 -102
-43 -117 -72 -37 -71 -23 -113 55 -167 148 -102 169 -131 114 -152 -39 -15
-79 -11 -156 17 -39 14 -77 27 -84 28 -7 1 -16 5 -19 9 -4 4 -16 7 -26 7 -28
0 -22 18 12 35 45 23 55 52 34 100 -54 123 -15 194 130 240 45 15 104 40 131
57 53 33 85 38 170 24 66 -10 66 -10 97 -3 17 5 31 2 40 -7 10 -9 35 -12 83
-10 222 8 286 12 292 17 3 4 12 2 19 -4 17 -14 132 -13 149 1 8 7 36 9 72 6
36 -4 71 -1 93 7 44 16 93 8 145 -25z m-850 -203 c88 -14 101 -15 140 -16 22
0 58 4 80 9 23 5 54 7 70 6 98 -11 188 -11 240 0 80 16 156 11 205 -14 21 -11
50 -20 64 -20 59 0 35 -43 -25 -44 -29 -1 -43 -6 -45 -16 -9 -54 -40 -89 -105
-117 -15 -6 -33 -25 -40 -42 -23 -52 -57 -37 -38 17 9 28 27 42 52 42 17 -1
67 31 81 52 24 33 19 63 -13 90 -30 26 -48 28 -156 13 -69 -9 -108 -8 -185 6
-41 8 -70 7 -115 -3 -62 -14 -83 -15 -197 -3 -78 9 -110 3 -137 -26 -37 -40
-5 -100 68 -124 59 -19 89 -61 66 -91 -13 -18 -35 -12 -35 10 0 20 -31 51 -70
71 -43 22 -69 51 -76 84 -11 49 -12 50 -41 42 -15 -4 -36 -5 -46 -3 -27 6 -16
36 13 37 14 1 38 10 52 19 26 17 108 35 138 29 8 -1 33 -5 55 -8z m318 -107
c32 -17 47 -34 47 -55 0 -11 11 -34 24 -52 30 -41 25 -65 -10 -49 -13 6 -24
16 -25 22 -4 60 -26 85 -75 86 -37 0 -74 -32 -74 -65 0 -26 -24 -55 -45 -55
-23 0 -25 28 -4 55 12 14 25 41 30 60 15 54 81 81 132 53z m-13 -185 c16 -16
42 -40 59 -55 19 -17 28 -33 25 -43 -8 -21 -20 -19 -38 7 -22 31 -108 30 -136
-2 -21 -24 -50 -21 -50 4 0 8 7 21 16 28 9 7 33 29 53 49 20 20 38 37 40 38 2
0 16 -11 31 -26z"/>
</g>
</svg>
